<svg width="129.23mm" height="76.5mm" version="1.1" viewBox="0 0 129.23 76.5" xmlns="http://www.w3.org/2000/svg">
 <defs>
  <clipPath id="clipPath20">
   <path d="M 0,595.276 H 841.89 V 0 H 0 Z"/>
  </clipPath>
 </defs>
 <g transform="translate(-25.345 -81.101)">
  <g transform="matrix(.35278 0 0 -.35278 -58.542 224.35)">
   <g clip-path="url(#clipPath20)">
    <g transform="translate(534.98 306.01)">
     <path d="m0 0-7.932-5.592c-0.261-0.26-0.737-0.411-1.43-0.454-0.695-0.045-1.342 0-1.951 0.128-0.608 0.131-0.974 0.369-1.107 0.716-0.129 0.347 0.194 0.78 0.979 1.3l10.919 6.373c0.784 0.518 1.431 0.518 1.954 0l5.331-5.462c0.257-0.261 0.323-0.564 0.194-0.911-0.132-0.347-0.37-0.627-0.717-0.844-0.347-0.218-0.714-0.368-1.103-0.456-0.391-0.086-0.671-0.043-0.847 0.13z" fill="#231f20"/>
    </g>
    <g transform="translate(255.64 200.18)">
     <path d="m0 0c-12.698 7.783-18.623 20.988-17.774 39.443 2.03 48.247 51.46 120.7 85.318 137.63 8.972 4.402 16.252 4.742 21.669 1.015 4.234-3.045 6.94-7.28 7.788-12.865 3.722-23.699-26.578-63.65-27.933-65.346-0.675-0.843-2.031-1.015-2.879-0.335-1.016 0.675-1.183 2.031-0.508 3.046 0.34 0.34 30.64 39.951 27.086 61.96-0.675 4.402-2.706 7.616-5.925 9.987-4.061 2.878-9.986 2.37-17.267-1.356-15.571-7.615-35.717-28.777-52.816-55.187-18.282-28.436-29.289-57.051-30.304-78.719-0.676-16.759 4.574-28.777 15.743-35.549 15.069-8.971 38.093 11.682 54.852 30.639 18.45 20.993 33.346 44.694 33.346 44.866 0.681 1.015 2.036 1.35 3.051 0.675 1.016-0.675 1.183-2.031 0.676-2.879-2.372-3.726-50.278-79.734-84.137-79.734-3.553 0-6.94 0.848-9.986 2.711" fill="#231f20"/>
    </g>
    <g transform="translate(341.14 241.15)">
     <path d="m0 0c-6.433 3.894-5.925 18.957 0.848 31.655 9.311 17.948 19.805 25.563 26.405 26.918 3.387 0.676 5.59-0.34 6.773-1.188 4.742-4.062 2.203-9.987 0.34-12.693-0.675-1.014-2.031-1.187-3.046-0.506-1.015 0.674-1.188 2.03-0.508 3.045 0.168 0.167 3.214 4.402 0.335 6.768-0.507 0.513-1.69 0.681-3.046 0.34-5.417-1.016-14.728-8.123-23.532-24.715-6.259-11.682-5.752-23.867-2.365-25.902 1.858-1.184 6.6 1.014 13.372 10.834 14.388 20.653 18.79 29.122 20.146 32.168 0.335 0.842 0.507 1.523 0.675 1.863 0.34 1.016 1.523 1.523 2.539 1.351 1.015-0.335 1.695-1.351 1.522-2.54 0-0.167-0.167-0.847-0.674-2.198-2.371-6.604-5.926-19.81-2.712-25.227 0.68-1.183 1.864-1.859 3.386-2.031 10.16-1.183 22.857 13.88 26.919 19.811 0.675 1.015 2.031 1.183 2.879 0.507 1.015-0.68 1.355-2.035 0.675-3.051-0.675-0.843-16.252-23.359-30.98-21.669-2.879 0.341-5.077 1.863-6.6 4.234-2.031 3.387-2.204 8.296-1.523 13.373-3.046-4.742-7.113-11.001-12.698-18.958-6.94-10.159-12.19-13.037-15.744-13.037-1.355 0-2.538 0.34-3.386 0.848" fill="#231f20"/>
    </g>
    <g transform="translate(434.79 251.86)">
     <path d="m0 0c-4.996 0.652-7.181 3.221-8.121 5.26-2.931 6.73 2.912 17.614 5.559 21.98l0.439 0.724-9.471 1.486c-1.981 0.307-3.652 0.916-4.834 1.764l-0.428 0.307-0.338-0.405c-1.025-1.227-2.109-2.579-3.294-4.055-0.776-0.968-1.595-1.989-2.468-3.063-0.483-0.551-1.09-0.85-1.745-0.85-0.531 0-1.066 0.208-1.507 0.587-0.962 0.826-1.082 2.157-0.279 3.096 1.431 1.735 2.914 3.584 4.349 5.373 0.957 1.192 1.891 2.357 2.773 3.442l0.233 0.287-0.168 0.329c-0.11 0.214-0.11 0.445-0.11 0.584 0.163 4.655 4.581 10.307 7.452 10.61 0.233 0.045 0.41 0.063 0.58 0.063 1.105 0 1.991-0.76 2.372-2.033 0.243-0.736 0.738-2.239-4.661-9.835l-0.32-0.45 0.442-0.332c0.764-0.575 1.674-0.764 2.783-0.953l12.711-1.86c0.79-0.135 1.486-0.663 1.759-1.346 0.488-0.98 0.195-1.829-0.133-2.376-3.962-5.706-9.519-16.537-7.479-21.174 0.248-0.763 1.193-2.181 4.52-2.533 0.469-0.053 0.958-0.08 1.451-0.08 13.852 0 31.337 20.921 33.464 24.565 0.523 0.784 1.393 1.269 2.31 1.269 0.114 0 0.23-8e-3 0.348-0.023 0.545-0.122 1.078-0.497 1.41-1.018 0.326-0.512 0.434-1.109 0.306-1.682-0.404-2.044-20.718-27.658-37.874-27.658z" fill="#231f20"/>
    </g>
    <g transform="translate(471.15 233.08)">
     <path d="m0 0c-3.521 0-6.146 1.443-7.8 4.292-6.311 10.965 6.259 42.764 17.916 67.508l0.413 0.877-0.966-0.07c-21.872-1.57-28.746-7.655-29.378-8.863l0.062 0.19c-0.367-0.493-1.018-0.787-1.743-0.787-0.593 0-1.157 0.15-1.548 0.412-0.896 0.775-1.059 2.144-0.342 3.29 0.71 0.909 8.024 9.328 35.849 10.548l0.338 0.015 0.147 0.303c3.763 7.74 7.818 15.627 12.051 23.444 0.499 0.804 1.32 1.27 2.171 1.27 0.359 0 0.701-0.08 1.018-0.238 1.063-0.668 1.486-2.027 0.934-3.134-3.492-6.366-7.199-13.529-10.708-20.696l-0.4-0.819 1.465 3e-3c6.667 0 13.993-0.383 21.773-1.141 1.228-0.139 2.162-1.247 2.03-2.419-0.122-1.234-0.989-2.058-2.158-2.058-0.087 0-0.175 5e-3 -0.264 0.015-7.334 0.684-14.249 1.03-20.563 1.03-1.436 0-2.825-0.018-4.164-0.052l-0.349-8e-3 -0.149-0.315c-7.803-16.429-25.323-55.747-19.509-65.996 0.559-0.928 1.516-1.979 4.047-1.979l0.306-3e-3c14.325 0 31.017 23.181 36.24 32.112 0.426 0.59 1.181 0.984 1.943 0.984 0.415 0 0.806-0.113 1.161-0.335 0.539-0.272 0.914-0.743 1.077-1.32 0.174-0.617 0.086-1.27-0.241-1.793l-0.105-0.17c-3.519-5.695-21.992-34.097-40.213-34.097z" fill="#231f20"/>
    </g>
    <g transform="translate(523.23 284.66)">
     <path d="m0 0c-3.894-3.046-7.28-7.956-9.986-13.373 2.539 0.168 10.494 1.016 15.236 7.28 3.387 4.57 3.895 8.972 2.879 9.987 0 0-0.341 0.168-0.681 0.168-1.015 0-3.386-0.843-7.448-4.062m-8.803-45.708c-4.91 1.015-8.124 4.401-9.479 9.651-2.711 11.682 4.91 31.148 15.576 39.611 7.956 6.264 12.018 5.417 14.049 3.558 3.386-3.558 1.355-10.834-2.539-15.916-7.113-9.478-19.298-8.97-19.806-8.97-0.172 0-0.507 0.167-0.68 0.167-2.366-6.26-3.386-12.693-2.198-17.435 0.848-3.554 2.878-5.584 5.925-6.265 11.342-2.371 27.594 22.857 32.843 32.676 0.675 1.183 2.031 1.523 3.046 1.016 1.183-0.681 1.523-2.031 1.015-3.047-2.03-3.727-19.47-35.214-35.382-35.214-0.847 0-1.69 0-2.37 0.168" fill="#231f20"/>
    </g>
    <g transform="translate(379.5 209.33)">
     <path d="m0 0v-11.854h-1.078v11.531c0 3.987-2.514 6.609-6.285 6.609-3.808 0-6.323-2.622-6.323-6.609v-11.531h-1.077v11.531c0 3.987-2.55 6.609-6.322 6.609-3.771 0-6.321-2.622-6.321-6.609v-11.531h-1.078v18.75h1.078v-3.843c0.933 2.551 3.052 4.203 6.573 4.203 3.376 0 5.891-1.868 6.788-4.777 0.899 2.765 3.09 4.777 6.789 4.777 4.382 0 7.256-2.91 7.256-7.256" fill="#fff"/>
    </g>
    <g transform="translate(397.78 206.13)">
     <path d="m0 0c-1.904 0.539-4.167 0.826-6.214 0.826-3.88 0-6.43-1.832-6.43-4.597 0-2.623 2.012-4.346 5.065-4.346 3.52 0 7.579 2.909 7.579 8.117m1.077 3.161v-11.817h-1.041l-0.036 3.951v1.077c-1.258-3.34-4.347-5.388-7.831-5.388-3.556 0-5.962 2.084-5.962 5.208 0 3.305 2.981 5.533 7.471 5.533 2.084 0 4.383-0.288 6.322-0.827v2.012c0 3.986-2.479 6.609-6.322 6.609-2.514 0-4.31-0.898-5.675-2.514l-0.575 0.754c1.472 1.724 3.593 2.694 6.429 2.694 4.383 0 7.22-2.945 7.22-7.292" fill="#fff"/>
    </g>
    <g transform="translate(414.01 216.58)">
     <path d="m0 0-0.144-1.006c-4.993 0-7.686-2.586-7.686-6.681v-11.422h-1.078v18.75h1.078v-3.952c1.113 3.018 3.771 4.311 7.83 4.311" fill="#fff"/>
    </g>
    <g transform="translate(423.89 206.85)">
     <path d="m0 0h-5.315v-9.375h-1.078v28.017h1.078v-17.708h5.28l7.866 8.441h1.364l-8.297-8.908 8.729-9.842h-1.401z" fill="#fff"/>
    </g>
    <g transform="translate(436.28 207.28)">
     <path d="m0 0h14.727c-0.108 5.064-2.982 8.369-7.364 8.369s-7.256-3.305-7.363-8.369m15.876-0.897h-15.876c0.216-5.03 3.089-8.334 7.399-8.334 2.91 0 5.388 1.508 7.113 3.843l0.754-0.61c-1.904-2.766-4.705-4.167-7.867-4.167-5.136 0-8.548 3.951-8.548 9.842 0 5.783 3.412 9.627 8.512 9.627 5.101 0 8.513-3.844 8.513-9.519z" fill="#fff"/>
    </g>
    <g transform="translate(466.56 198.77)">
     <path d="m0 0v-0.934c-1.149-0.503-2.586-0.718-4.382-0.718-2.765 0-4.597 1.868-4.597 4.706v13.469h-3.413v0.934h3.413v5.495h1.077v-5.495h7.615v-0.934h-7.615v-13.291c0-2.37 1.508-3.915 3.807-3.915 1.437 0 2.766 0.18 4.095 0.683" fill="#fff"/>
    </g>
    <path d="m470 216.22h1.077v-18.75h-1.077zm-0.467 6.86c0 0.539 0.431 0.97 0.97 0.97s0.97-0.431 0.97-0.97-0.431-1.006-0.97-1.006-0.97 0.467-0.97 1.006" fill="#fff"/>
    <g transform="translate(493.82 209.33)">
     <path d="m0 0v-11.854h-1.078v11.531c0 3.987-2.802 6.609-7.04 6.609-4.202 0-7.004-2.622-7.004-6.609v-11.531h-1.078v18.75h1.078v-3.987c1.006 2.622 3.305 4.347 7.256 4.347 4.705 0 7.866-2.91 7.866-7.256" fill="#fff"/>
    </g>
    <g transform="translate(516.08 206.85)">
     <path d="m0 0c0 5.244-3.233 8.765-8.082 8.765-4.85 0-8.082-3.485-8.082-8.729 0-5.316 3.232-8.801 8.082-8.801 4.849 0 8.082 3.485 8.082 8.765m1.077 9.375v-17.673c0-5.602-3.879-9.339-9.734-9.339-3.305 0-6.034 0.826-8.154 2.515l0.251 0.898c1.941-1.437 4.418-2.478 7.867-2.478 5.209 0 8.693 3.448 8.693 8.584v3.987c-1.114-3.305-3.844-5.603-8.334-5.603-5.352 0-8.979 3.88-8.979 9.77 0 5.782 3.627 9.698 8.979 9.698 4.49 0 7.22-2.298 8.334-5.639v1.006l0.035 4.274z" fill="#fff"/>
    </g>
    <g transform="translate(564.66 344.86)">
     <path d="m0 0-23.194 17.569-1e-3 1e-3 -8.383 6.349 42.305 23.84c0.65 0.366 0.931 1.155 0.66 1.851-0.272 0.696-1.016 1.087-1.739 0.916l-58.334-13.647-15.203 11.517 98.994 9.523zm-39.188 7.657 5.551 14.058 6.987-5.292zm39.28 37.552-35.123-19.792h-1e-3l-0.011-6e-3c-0.02-0.011-0.035-0.029-0.056-0.041-0.08-0.051-0.158-0.104-0.227-0.169-0.026-0.024-0.046-0.052-0.07-0.078-0.025-0.026-0.047-0.053-0.07-0.081-0.03-0.037-0.061-0.072-0.088-0.112-0.028-0.042-0.049-0.088-0.072-0.133-0.024-0.047-0.056-0.091-0.075-0.142l-6.27-15.872-5.291 25.348zm39.117 15.287c-0.303 0.481-0.855 0.75-1.414 0.695l-105.8-10.177c-0.615-0.059-1.131-0.49-1.301-1.084-0.168-0.595 0.045-1.232 0.539-1.605l18.38-13.922 6.499-31.138c4e-3 -0.015 0.013-0.026 0.016-0.04 0.02-0.083 0.058-0.159 0.092-0.237 0.029-0.069 0.051-0.14 0.09-0.203 0.04-0.062 0.093-0.114 0.141-0.171 0.056-0.066 0.107-0.133 0.172-0.188 0.011-9e-3 0.018-0.022 0.028-0.031 0.044-0.035 0.097-0.049 0.144-0.078 0.08-0.051 0.159-0.102 0.249-0.136 0.073-0.029 0.148-0.041 0.225-0.057 0.063-0.014 0.12-0.041 0.185-0.047 0.042-3e-3 0.085-5e-3 0.127-5e-3h2e-3c0.152 0 0.302 0.023 0.443 0.067l2e-3 1e-3c0.145 0.046 0.28 0.113 0.404 0.198 2e-3 2e-3 6e-3 2e-3 8e-3 4e-3l17.42 12.178 23.653-17.916c0.261-0.199 0.58-0.304 0.904-0.304 0.094 0 0.189 9e-3 0.281 0.027 0.418 0.079 0.781 0.332 1.002 0.695l37.52 61.899c0.293 0.485 0.289 1.095-0.014 1.575" fill="#231f20"/>
    </g>
   </g>
  </g>
 </g>
</svg>
