<svg version="1.1" viewBox="0 0 800.8 953.35" xmlns="http://www.w3.org/2000/svg">
 <defs>
  <style>.cls-1,.cls-11,.cls-5,.cls-6,.cls-8,.cls-9{fill:none;}.cls-2{fill:#949494;}.cls-3{fill:#f2f2f2;}.cls-10,.cls-11,.cls-4,.cls-5,.cls-6,.cls-7{fill-rule:evenodd;}.cls-4{fill:url(#New_Pattern);}.cls-5,.cls-6,.cls-8,.cls-9{stroke:#000;stroke-width:2.5px;}.cls-11,.cls-5,.cls-6,.cls-8,.cls-9{stroke-linecap:round;}.cls-5,.cls-9{stroke-miterlimit:10;}.cls-11,.cls-6,.cls-8{stroke-linejoin:round;}.cls-7{fill:#ffe4ad;}.cls-11{stroke:#bcbcbc;stroke-width:4px;}</style>
  <pattern id="New_Pattern" width="12" height="12" data-name="New Pattern" patternTransform="matrix(-1 0 0 1 5.96 -26.97)" patternUnits="userSpaceOnUse" viewBox="0 0 12 12">
   <rect class="cls-1" width="12" height="12"/>
   <rect class="cls-1" width="12" height="12"/>
   <circle class="cls-2" cx="12" cy="3" r="2"/>
   <circle class="cls-2" cx="6" r="2"/>
   <circle class="cls-2" cy="3" r="2"/>
   <circle class="cls-2" cx="12" cy="9" r="2"/>
   <circle class="cls-2" cx="6" cy="6" r="2"/>
   <circle class="cls-2" cy="9" r="2"/>
   <circle class="cls-2" cx="6" cy="12" r="2"/>
  </pattern>
 </defs>
 <title>schoolbooks-monochrome</title>
 <g transform="matrix(-1,0,0,1,800.79456,0)" data-name="Layer 2">
  <g data-name="Layer 1">
   <path class="cls-3" d="m753.19 198.55c-41.58-63.81-113.48-110-190.38-131.68l-10.14 39a8.28 8.28 0 0 1 3.87-3.72c4.92-2.11 8.28-0.59 9.83 1.35 2.22-3.49 4.68-5.7 8.09-6.9 8.12-2.86 13.63 4.65 15.85 11.33 3.57 10.74 1.21 20.54-2.22 22a9.22 9.22 0 0 1-11.09-2.8c-0.24 2.93-0.66 5.37-6 7.69-8 3.47-16.84-7-18.93-12.4a22.09 22.09 0 0 1-1.37-8.85l-8 30.93-13.7-3.5 20.19-77.65c-36.89-9-74.58-12.25-110.33-9.12a70.42 70.42 0 0 1 7.8 23.29c5 29.64-8.85 55.93-30.95 58.72-7.31 0.92 2.69 0.27 3.93 0.27l-0.88 22.3c5.33-1.68 23.1 4.37 28.8 9.84 39.48-7.45 158.9-40.17 158.9-40.17l6 23.78c-3.38 0.86-10.54 3-10.54 3s11 40 10.06 39.79l41.57-9.93 6 23.77-65 17.4-12 3.19 8.6 34.19-96.86 24.21 0.17 0.4c49.42-12.14 105.48-26 112.19-28.2 2.24 12.06 7.67 23.42-20.82 34.12-14.45 5.43-14.78-1.67-34.69 2.82-5.48 1.24-17.88 7.84-33.66 16.59 5.37 27.64 6.85 50 5 57.44-6.11 23.95-139.43 47.67-165.48 37.84l0.67 20.25-39.75 7.92a16.28 16.28 0 0 1-19.16-12.79l-44-220.87a16.28 16.28 0 0 1 12.8-19.16l60.33-12a16.29 16.29 0 0 1 19.11 12.76l3 15.14c7.55-15.17 18.22-27.39 32.93-34.69-1.12-15.19-2.71-30.35-5.6-43.12a34.39 34.39 0 0 1-6.31 1.92c-14.21 2.68-23.24-0.39-37.19 2-29.83 5.19-30.63 38.75-78.23 45.75a94.88 94.88 0 0 1-18.75 0.87c-46.11 56.18-83.42 124.13-118.53 184.84-65.46 113.21-123.75 201.29-117.92 294.35 5.6 93.26 75.1 191.23 175.31 247.94 100 56.72 230.68 72.19 336.49 25.33q2.29-1 4.56-2.06l-1.15-7.48 29.33-7.35c90.07-53.38 159.77-154 206.69-280.14 52.68-141.23 76.66-314.3 1.56-429.75zm-186.53-100c-3.91-3.28-8.74-24.55 2.63-23.55 11.71 1 2.91 19.6-2.63 23.56zm-297.54 799.8-57.12-105.79 32.52-16.63 22.77 35.89 18 78z" fill="#f2f2f2"/>
   <path class="cls-4" d="m353.72 405.31c-8.52-11.9-36.59-137.2-3.69-205.15l-3.03-15.16a16.29 16.29 0 0 0-19.16-12.8l-60.33 12a16.28 16.28 0 0 0-12.8 19.16l44 220.87a16.28 16.28 0 0 0 19.16 12.79l39.75-7.92-0.71-21.59a7.48 7.48 0 0 1-3.19-2.2z" fill="url(#New_Pattern)" fill-rule="evenodd"/>
   <g fill="none" stroke="#000" stroke-linecap="round" stroke-width="2.5px">
    <g stroke-miterlimit="10">
     <path class="cls-5" d="m518.06 312.44c5.36 27.63 6.85 50 5 57.43-6.54 25.7-158.18 51-169.3 35.44-10.48-14.64-50.58-201 29.77-240.91"/>
     <path class="cls-5" d="m468.47 188.63a158.62 158.62 0 0 1 12.12 17.67"/>
     <path class="cls-5" d="m419.31 157.67a61.31 61.31 0 0 1 28.28 10.94"/>
    </g>
    <path class="cls-6" d="m421.06 172.05c-2.48-6.56-2-27.46-0.86-36.69" stroke-linejoin="round"/>
    <path class="cls-6" d="m376.1 114.25c4.58 15.85 6.55 36.86 7.88 57.24 4 3.49 11.72 4.78 19.11 4.71" stroke-linejoin="round"/>
   </g>
   <path class="cls-7" d="m524.92 415.33" fill="#ffe4ad" fill-rule="evenodd"/>
   <g fill="none" stroke="#000" stroke-linecap="round" stroke-linejoin="round" stroke-width="2.5px">
    <path class="cls-6" d="m529 141 30.44-117 13.56 3.54-30.41 117z"/>
    <path class="cls-8" d="m537.29 129.94 7.8 2"/>
    <path class="cls-8" d="m541.29 114.56 7.79 2"/>
    <path class="cls-8" d="m545.29 99.18 7.79 2"/>
    <path class="cls-8" d="m549.29 83.8 7.79 2"/>
    <path class="cls-8" d="m553.29 68.42 7.79 2"/>
    <path class="cls-8" d="m557.29 53 7.79 2"/>
    <path class="cls-8" d="m561.29 37.66 7.79 2"/>
    <path class="cls-6" d="m574.46 96.61c8.12-2.86 13.63 4.65 15.85 11.33 3.57 10.74 1.21 20.54-2.22 22a9.22 9.22 0 0 1-11.09-2.81c-0.24 2.93-0.66 5.37-6 7.69-8 3.47-16.84-7-18.93-12.4-2.78-7.1-1.47-17.7 4.5-20.26 4.92-2.11 8.28-0.59 9.83 1.35 2.19-3.51 4.65-5.7 8.06-6.9z"/>
   </g>
   <path class="cls-4" d="m569.29 75c11.75 1 2.91 19.59-2.63 23.55-3.91-3.28-8.74-24.55 2.63-23.55z" fill="url(#New_Pattern)" fill-rule="evenodd"/>
   <g fill="none" stroke="#000" stroke-linecap="round" stroke-width="2.5px">
    <path class="cls-6" d="m356.74 306c-0.71 21.41 1.17 54.92 30.47 61.7 33.73 7.81 144.6-67.35 164.51-71.83s20.28 2.58 34.68-2.87c28.5-10.7 23.07-22.07 20.82-34.12-12.05 3.92-183.61 45.63-189.4 47.15a37.88 37.88 0 0 1-1.74-4.43" stroke-linejoin="round"/>
    <path class="cls-5" d="m365 201.59a25.15 25.15 0 0 1 13.77-4.84 30.19 30.19 0 0 1 15.9 3.46" stroke-miterlimit="10"/>
    <path class="cls-5" d="m421.61 245.5c5.7 24.71 4.78 50.19 1.31 53.36-7 6.44-73.43 11.12-78.4 3.81-4.36-6.4-7.14-81.12 20.46-101.08" stroke-miterlimit="10"/>
    <path class="cls-6" d="m604.08 222.87-123.18 31c-11.29 2.84-18.52 12.8-16.15 22.24s13.46 14.79 24.76 11.94l123.18-31" stroke-linejoin="round"/>
    <path class="cls-6" d="m591.73 262.5-8.6-34.19" stroke-linejoin="round"/>
   </g>
   <path class="cls-4" d="m479.19 229.13 174.4-44.08 6 23.77-174.39 44.09z" fill="url(#New_Pattern)" fill-rule="evenodd"/>
   <g fill="none" stroke="#000" stroke-linecap="round" stroke-width="2.5px">
    <path class="cls-6" d="m480.59 206.3-4.86-19.2 126.27-31.91 10 39.81-126.21 31.89-5.2-20.59" stroke-linejoin="round"/>
    <path class="cls-6" d="m432.09 172.53 174.4-44.09 6 23.78-174.38 44.08z" stroke-linejoin="round"/>
    <path class="cls-9" d="m483.71 257.66 6.24 25.2" stroke-miterlimit="10"/>
   </g>
   <path class="cls-4" d="m488.25 200.66 35.63-9 2.84 11.23-35.63 9z" fill="url(#New_Pattern)" fill-rule="evenodd"/>
   <g fill="none" stroke="#000" stroke-linecap="round" stroke-width="2.5px">
    <g stroke-miterlimit="10">
     <path class="cls-9" d="m444.63 183.83 71.88-18.41"/>
     <path class="cls-5" d="m212 792.56 57.13 105.79 16.11-8.5-18-78-22.77-35.89z"/>
     <path class="cls-5" d="m521.17 951.89 118.38-21-3-18-79.71-7.49-41.23 10.33z"/>
    </g>
    <g stroke-linejoin="round">
     <path class="cls-6" d="m439.56 52.6c3.23-8.18 5.1-11.81 4.06-19.79-4.52-24.53-28.62-35.12-49.99-30.51-37.08 8-55 28-77.14 31.73-33.6 5.62-64.9-7-100.17 2.3-47.79 12.6-54.9 46.73-47.94 77.35 11.51 50.65 55.07 62 87.75 57.22 47.6-7 48.41-40.56 78.26-45.69 13.95-2.39 23 0.67 37.19-2a34.79 34.79 0 0 0 6.32-1.93"/>
     <path class="cls-6" d="m433.43 44.74c7.58 8.43 11.71 19.34 13.78 31.64 5 29.64-8.85 55.93-30.94 58.72a33.92 33.92 0 0 1-21.27-4.7"/>
     <path class="cls-6" d="m389.59 84.33c-5.67 3.12-11.19 5.81-16 7.88"/>
     <path class="cls-6" d="m432.71 41.56c0.76 4-1.06 8.54-4.57 13.22"/>
     <path class="cls-6" d="m379.21 111.18a10.62 10.62 0 1 1-6.57-19 10.85 10.85 0 0 1 3.19 0.48"/>
    </g>
   </g>
   <path class="cls-10" d="m517.07 377.45c-21.89 17-96.83 32-137.4 32.6 19.53 63.49 135.94 505.74 135.94 505.74l37.62-9.43z" fill-rule="evenodd"/>
   <path class="cls-10" d="m353.72 405.31a14.7 14.7 0 0 1-1.06-1.85c7.57 39.41 40.51 209.32 50.89 234.87-15.6 12.66-159 137.6-159 137.6l18.45 29.2 205-110.79-34.85-290c-37.79 6.55-74.15 8.28-79.43 0.97z" fill-rule="evenodd"/>
   <g fill="none" stroke-linecap="round" stroke-linejoin="round">
    <path class="cls-6" d="m357.63 429.14-39.75 7.92a16.28 16.28 0 0 1-19.16-12.79l-44-220.87a16.28 16.28 0 0 1 12.8-19.16l60.33-12a16.29 16.29 0 0 1 19.15 12.76l3 15.14" stroke="#000" stroke-width="2.5px"/>
    <g stroke="#bcbcbc" stroke-width="4px">
     <path class="cls-11" d="m343.82 191a42 42 0 0 1 17.72-8.72"/>
     <path class="cls-11" d="m361.27 339.2c-9.95-6.7-19-16.78-26-29.27"/>
     <path class="cls-11" d="m361.54 182.32c31.34-6.88 64.86 24.5 74.88 70.1 4 18.07 3.65 35.65-0.14 50.73"/>
    </g>
   </g>
  </g>
 </g>
</svg>
