<svg enable-background="new 0 0 512 512" version="1.1" viewBox="0 0 512 512" xmlns="http://www.w3.org/2000/svg">
 <polyline transform="matrix(-1 0 0 1 512 0)" points="498.33 19 300.14 305.1 279.49 334.92 279.49 435.06 354.8 361.46 316.33 289.67" fill="#f5c86e"/>
 <polyline transform="matrix(-1 0 0 1 512 0)" points="209.5 313.52 64 269 502 10 502 403 283 336" fill="#fae196"/>
 <polygon transform="matrix(-1 0 0 1 512 0)" points="213.35 314.69 498.33 19 285.63 326.05 279.49 435.06" fill="#f5b955"/>
 <path d="m5.0452 1.314c3.119-1.78 6.955-1.75 10.045 0.078l183.25 108.36c4.754 2.811 6.329 8.943 3.518 13.697-2.81 4.753-8.942 6.328-13.697 3.518l-131.48-77.749 244.91 254.11 121.81-37.266-158.96-94c-4.754-2.812-6.329-8.944-3.518-13.698 2.81-4.753 8.943-6.33 13.697-3.518l178.48 105.54c3.41 2.017 5.309 5.856 4.84 9.791s-3.216 7.221-7.004 8.38l-145.47 44.504-64.177 116.81c-0.067 0.121-0.136 0.223-0.207 0.314-1.071 1.786-2.676 3.245-4.678 4.087-1.253 0.527-2.57 0.784-3.878 0.784-2.563 0-5.086-0.986-6.991-2.849l-73.794-72.12-138.81 42.466c-0.96 0.293-1.945 0.438-2.925 0.438-2.116 0-4.206-0.672-5.948-1.961-2.549-1.886-4.053-4.869-4.053-8.039v-393c0-3.591 1.926-6.907 5.045-8.686zm87.371 113.81 148.32 214.11c1.158 1.673 1.779 3.659 1.779 5.694v61.171l43.823-79.765zm130.1 296.19v-62.867l-48.99 14.988zm-6.015-81.942-196.5-283.66v343.78z"/>
 <path d="m347.58 347.58c3.906-3.905 10.236-3.905 14.143 0l93.352 93.352c3.905 3.905 3.905 10.237 0 14.143-1.954 1.952-4.513 2.928-7.072 2.928s-5.118-0.976-7.071-2.929l-93.352-93.352c-3.905-3.904-3.905-10.236 0-14.142z"/>
 <path d="m486.07 471.93 23 23c3.905 3.905 3.905 10.237 0 14.143-1.953 1.952-4.512 2.928-7.071 2.928s-5.118-0.977-7.071-2.929l-23-23c-3.905-3.905-3.905-10.237 0-14.143 3.906-3.903 10.236-3.903 14.142 1e-3z"/>
 <path d="m376.42 491.41c2.641 0 5.21 1.07 7.07 2.93s2.93 4.43 2.93 7.07c0 2.63-1.069 5.21-2.93 7.07-1.86 1.86-4.44 2.93-7.07 2.93s-5.21-1.07-7.069-2.93c-1.86-1.86-2.931-4.44-2.931-7.07 0-2.64 1.07-5.21 2.931-7.07 1.859-1.86 4.439-2.93 7.069-2.93z"/>
 <path d="m309.09 419.94 49.446 49.445c3.905 3.905 3.905 10.237 0 14.142-1.953 1.953-4.512 2.929-7.071 2.929s-5.118-0.977-7.071-2.929l-49.446-49.445c-3.905-3.905-3.905-10.237 0-14.142 3.903-3.905 10.233-3.905 14.142 0z"/>
 <path d="m138.44 416.14 49.58 49.58c3.905 3.905 3.905 10.237 0 14.143-1.953 1.952-4.512 2.929-7.071 2.929s-5.118-0.977-7.071-2.929l-49.58-49.58c-3.905-3.905-3.905-10.237 0-14.143 3.906-3.904 10.236-3.904 14.142 0z"/>
 <path d="m235.57 153.38c-2.63 0-5.21-1.06-7.07-2.93-1.859-1.86-2.93-4.43-2.93-7.06 0-2.64 1.07-5.22 2.93-7.08s4.44-2.93 7.07-2.93 5.21 1.07 7.07 2.93c1.859 1.86 2.93 4.44 2.93 7.08 0 2.63-1.07 5.2-2.93 7.06-1.86 1.87-4.44 2.93-7.07 2.93z"/>
</svg>
