<svg enable-background="new 0 0 512 512" version="1.1" viewBox="0 0 512 512" xmlns="http://www.w3.org/2000/svg">
 <polyline transform="translate(.004)" points="498 19 300 305 279 335 279 435 355 361 316 290" fill="#f5c86e"/>
 <polyline transform="translate(.004)" points="210 314 64 269 502 10 502 403 283 336" fill="#fae196"/>
 <polygon transform="translate(.004)" points="498 19 286 326 279 435 213 315" fill="#f5b955"/>
 <path d="m507 1c-3-2-7-2-10 .08l-183 108c-5 3-6 9-4 14 3 5 9 6 14 4l131-78-245 254-122-37 159-94c5-3 6-9 4-14-3-5-9-6-14-4l-178 106c-3 2-5 6-5 10s3 7 7 8l145 45 64 117c.07.1.1.2.2.3 1 2 3 3 5 4 1 .5 3 .8 4 .8 3 0 5-1 7-3l74-72 139 42c1 .3 2 .4 3 .4 2 0 4-.7 6-2 3-2 4-5 4-8v-393c0-4-2-7-5-9zm-87 114-148 214c-1 2-2 4-2 6v61l-44-80zm-130 296v-63l49 15zm6-82 196-284v344z"/>
 <path d="m164 348c-4-4-10-4-14 0l-93 93c-4 4-4 10 0 14 2 2 5 3 7 3s5-1 7-3l93-93c4-4 4-10 0-14z"/>
 <path d="m26 472-23 23c-4 4-4 10 0 14 2 2 5 3 7 3s5-1 7-3l23-23c4-4 4-10 0-14-4-4-10-4-14 .001z"/>
 <path d="m136 491c-3 0-5 1-7 3s-3 4-3 7c0 3 1 5 3 7 2 2 4 3 7 3s5-1 7-3c2-2 3-4 3-7 0-3-1-5-3-7-2-2-4-3-7-3z"/>
 <path d="m203 420-49 49c-4 4-4 10 0 14 2 2 5 3 7 3s5-1 7-3l49-49c4-4 4-10 0-14-4-4-10-4-14 0z"/>
 <path d="m374 416-50 50c-4 4-4 10 0 14 2 2 5 3 7 3s5-1 7-3l50-50c4-4 4-10 0-14-4-4-10-4-14 0z"/>
 <path d="m276 153c3 0 5-1 7-3 2-2 3-4 3-7 0-3-1-5-3-7s-4-3-7-3-5 1-7 3c-2 2-3 4-3 7 0 3 1 5 3 7 2 2 4 3 7 3z"/>
</svg>
